<svg width="40" height="40" viewBox="0 0 40 40" fill="none" xmlns="http://www.w3.org/2000/svg">
<g clip-path="url(#clip0_293_1233)">
<mask id="mask0_293_1233" style="mask-type:luminance" maskUnits="userSpaceOnUse" x="0" y="0" width="40" height="40">
<path d="M40 0H0V40H40V0Z" fill="white"/>
</mask>
<g mask="url(#mask0_293_1233)">
<path fill-rule="evenodd" clip-rule="evenodd" d="M34.8819 40C36.5548 15.134 6.80222 22.576 0.0620957 11.9261C-0.63784 18.4161 4.72986 20.7231 8.58332 22.0539C12.2019 23.3069 7.23377 27.4426 1.57482 21.9361C3.61972 26.3631 7.77969 27.768 12.786 29.0441C17.2844 30.1928 13.4752 33.958 9.83985 30.6894C12.2126 37.6711 28.5993 34.0758 34.8804 40H34.8819Z" fill="url(#paint0_radial_293_1233)"/>
<path fill-rule="evenodd" clip-rule="evenodd" d="M1.57574 21.9373C6.12456 29.1837 15.7605 23.6955 22.1941 26.6679C19.3303 24.6875 14.8745 23.6566 8.58272 22.0538C12.2013 23.3069 7.23317 27.4425 1.57422 21.9361L1.57574 21.9373Z" fill="url(#paint1_radial_293_1233)"/>
<path fill-rule="evenodd" clip-rule="evenodd" d="M9.8418 30.6894C14.0185 36.4083 20.78 31.0245 25.9174 32.6868C22.895 31.0585 18.3737 29.888 12.7879 29.0441C17.2864 30.1927 13.4772 33.958 9.8418 30.6894Z" fill="url(#paint2_radial_293_1233)"/>
<path fill-rule="evenodd" clip-rule="evenodd" d="M28.0159 11.0166C32.0279 13.6587 35.9805 15.7168 36.101 17.5321C35.4392 16.6834 34.3031 16.3567 33.4065 15.7739C33.6962 16.636 34.9802 17.1836 35.9424 17.7628C37.1013 18.4634 38.0575 19.2733 37.8882 20.7182C35.1449 17.9765 30.9742 19.1033 33.0939 23.3033C34.509 26.1021 37.4673 29.5662 37.3133 31.9522C47.2008 13.0796 26.9881 10.6511 21.8278 0C20.2144 2.47701 20.1717 4.0822 22.7458 6.90283C24.26 8.42182 26.1464 9.78417 28.0159 11.0154V11.0166Z" fill="url(#paint3_radial_293_1233)"/>
<path fill-rule="evenodd" clip-rule="evenodd" d="M26.1864 15.9645C27.077 15.1462 28.0666 14.567 29.2805 14.5063C28.2969 13.6442 27.8211 12.5089 28.0178 11.0154C26.1483 9.78418 24.262 8.42182 22.7477 6.90284C25.9287 10.3889 20.2545 10.4241 19.0574 6.55071C17.5157 9.188 19.9434 11.0992 21.845 12.9666C23.315 14.2683 24.7637 15.2907 26.1849 15.9658L26.1864 15.9645Z" fill="url(#paint4_radial_293_1233)"/>
<path fill-rule="evenodd" clip-rule="evenodd" d="M23.5235 19.0559C24.3927 17.9899 25.2344 16.84 26.186 15.9658C24.7648 15.2907 23.3161 14.2683 21.8461 12.9666C23.7751 14.8596 20.6551 16.7186 18.6758 13.4365C19.0524 16.239 20.7756 18.0324 23.525 19.0559H23.5235Z" fill="url(#paint5_radial_293_1233)"/>
</g>
</g>
<defs>
<radialGradient id="paint0_radial_293_1233" cx="0" cy="0" r="1" gradientUnits="userSpaceOnUse" gradientTransform="translate(40.3411 17.7021) scale(50.955 40.5731)">
<stop stop-color="white"/>
<stop offset="0.5" stop-color="#ED1C24"/>
<stop offset="1" stop-color="#812326"/>
</radialGradient>
<radialGradient id="paint1_radial_293_1233" cx="0" cy="0" r="1" gradientUnits="userSpaceOnUse" gradientTransform="translate(-11.537 33.374) scale(33.7189 26.8488)">
<stop stop-color="white"/>
<stop offset="0.5" stop-color="#ED1C24"/>
<stop offset="1" stop-color="#812326"/>
</radialGradient>
<radialGradient id="paint2_radial_293_1233" cx="0" cy="0" r="1" gradientUnits="userSpaceOnUse" gradientTransform="translate(1.20621 39.7159) scale(22.5901 17.9874)">
<stop stop-color="white"/>
<stop offset="0.5" stop-color="#ED1C24"/>
<stop offset="1" stop-color="#812326"/>
</radialGradient>
<radialGradient id="paint3_radial_293_1233" cx="0" cy="0" r="1" gradientUnits="userSpaceOnUse" gradientTransform="translate(44.209 5.11065) scale(34.5606 27.519)">
<stop stop-color="white"/>
<stop offset="0.5" stop-color="#F14F56"/>
<stop offset="1" stop-color="#B12025"/>
</radialGradient>
<radialGradient id="paint4_radial_293_1233" cx="0" cy="0" r="1" gradientUnits="userSpaceOnUse" gradientTransform="translate(-12.5601 11.3614) scale(50.1712 39.949)">
<stop stop-color="white"/>
<stop offset="0.5" stop-color="#EC1C24"/>
<stop offset="1" stop-color="#992226"/>
</radialGradient>
<radialGradient id="paint5_radial_293_1233" cx="0" cy="0" r="1" gradientUnits="userSpaceOnUse" gradientTransform="translate(-11.5358 16.1625) scale(41.3007 32.8859)">
<stop stop-color="white"/>
<stop offset="0.5" stop-color="#E81C24"/>
<stop offset="1" stop-color="#9E2125"/>
</radialGradient>
<clipPath id="clip0_293_1233">
<rect width="40" height="40" fill="white"/>
</clipPath>
</defs>
</svg>
